<svg width="64" height="64" viewBox="0 0 64 64" fill="none" xmlns="http://www.w3.org/2000/svg">
<path d="M48 50.2934H45.9733C43.84 50.2934 41.8133 51.12 40.32 52.6134L35.76 57.1202C33.68 59.1735 30.2933 59.1735 28.2133 57.1202L23.6533 52.6134C22.16 51.12 20.1067 50.2934 18 50.2934H16C11.5733 50.2934 8 46.7468 8 42.3735V13.28C8 8.9067 11.5733 5.36011 16 5.36011H48C52.4267 5.36011 56 8.9067 56 13.28V42.3735C56 46.7201 52.4267 50.2934 48 50.2934Z" stroke="#2354A4" stroke-width="4" stroke-miterlimit="10" stroke-linecap="round" stroke-linejoin="round"/>
<path d="M18.6667 24.426C18.6667 21.946 20.6934 19.9192 23.1734 19.9192C25.6534 19.9192 27.68 21.946 27.68 24.426C27.68 29.4394 20.56 29.9727 18.9867 34.746C18.6667 35.7327 19.4933 36.7193 20.5333 36.7193H27.68" stroke="#2354A4" stroke-width="4" stroke-linecap="round" stroke-linejoin="round"/>
<path d="M42.7734 36.693V21.4664C42.7734 20.7731 42.32 20.1596 41.6534 19.9729C40.9867 19.7863 40.2667 20.0529 39.8934 20.6396C37.9734 23.7329 35.8934 27.253 34.08 30.3463C33.7867 30.853 33.7867 31.5196 34.08 32.0263C34.3734 32.533 34.9334 32.8528 35.5467 32.8528H45.3334" stroke="#2354A4" stroke-width="4" stroke-linecap="round" stroke-linejoin="round"/>
</svg>
