<svg width="64" height="64" viewBox="0 0 64 64" fill="none" xmlns="http://www.w3.org/2000/svg">
<path d="M38.8003 5.33325H25.2002C20.4002 5.33325 19.3336 7.73328 18.7203 10.6933L16.5336 21.1466H47.4669L45.2802 10.6933C44.6669 7.73328 43.6003 5.33325 38.8003 5.33325Z" stroke="#2354A4" stroke-width="4" stroke-linecap="round" stroke-linejoin="round"/>
<path d="M51.3069 38.1866C51.5202 40.4533 49.7069 42.4 47.3869 42.4H43.7602C41.6802 42.4 41.3869 41.52 41.0135 40.4L40.6135 39.2532C40.0802 37.6798 39.7335 36.6132 36.9335 36.6132H27.0402C24.2668 36.6132 23.8402 37.8132 23.3602 39.2532L22.9602 40.4C22.5869 41.4933 22.2935 42.4 20.2135 42.4H16.5869C14.2669 42.4 12.4535 40.4533 12.6669 38.1866L13.7602 26.4C14.0269 23.4933 14.5868 21.1199 19.6535 21.1199H44.3202C49.3868 21.1199 49.9469 23.4933 50.2135 26.4L51.3069 38.1866Z" stroke="#2354A4" stroke-width="4" stroke-linecap="round" stroke-linejoin="round"/>
<path d="M16.5336 15.3333H14.5869" stroke="#2354A4" stroke-width="4" stroke-linecap="round" stroke-linejoin="round"/>
<path d="M49.4135 15.3333H47.4668" stroke="#2354A4" stroke-width="4" stroke-linecap="round" stroke-linejoin="round"/>
<path d="M20.4 28.8801H26.1867" stroke="#2354A4" stroke-width="4" stroke-linecap="round" stroke-linejoin="round"/>
<path d="M37.8135 28.8801H43.6002" stroke="#2354A4" stroke-width="4" stroke-linecap="round" stroke-linejoin="round"/>
<path d="M32 45.3333V47.9999" stroke="#2354A4" stroke-width="4" stroke-linecap="round" stroke-linejoin="round"/>
<path d="M32 56V58.6667" stroke="#2354A4" stroke-width="4" stroke-linecap="round" stroke-linejoin="round"/>
<path d="M8.00004 48L5.33337 58.6667" stroke="#2354A4" stroke-width="4" stroke-linecap="round" stroke-linejoin="round"/>
<path d="M56 48L58.6667 58.6667" stroke="#2354A4" stroke-width="4" stroke-linecap="round" stroke-linejoin="round"/>
</svg>
