<svg width="16" height="18" viewBox="0 0 16 18" fill="none" xmlns="http://www.w3.org/2000/svg">
<path d="M16 14.6484C15.8943 15.5035 15.848 15.8745 15.4531 16.708L9.38965 17.96C9.52903 17.0591 9.71461 16.364 10.0166 15.9473L16 14.6484ZM7.55469 8.75195L9.36621 8.35938V2.63379C10.0413 1.87594 10.4566 1.53563 11.2715 1.10547V7.94531L16 6.91895C15.8943 7.7738 15.8478 8.14433 15.4531 8.97754L11.2715 9.86133V11.7852L16 10.7842C15.8943 11.6393 15.848 12.0102 15.4531 12.8438L11.2715 13.707V13.7246L9.36621 14.1182V10.2637L7.55469 10.6465V13.0762L7.52344 13.082C7.10672 13.8128 6.51827 14.6907 5.95117 15.3916L0 16.5254C0.0533615 15.7597 0.164479 15.3279 0.510742 14.5566L5.64941 13.4424V11.0498L0.886719 12.0576C0.940076 11.2919 1.05224 10.861 1.39844 10.0898L5.64941 9.16602V1.56836C6.32454 0.81051 6.73977 0.470197 7.55469 0.0400391V8.75195Z" fill="#09162A"/>
</svg>
